<?xml version="1.0" standalone="no"?>
<!DOCTYPE svg PUBLIC "-//W3C//DTD SVG 20010904//EN"
 "http://www.w3.org/TR/2001/REC-SVG-20010904/DTD/svg10.dtd">
<svg version="1.0" xmlns="http://www.w3.org/2000/svg"
 width="500.000000pt" height="500.000000pt" viewBox="0 0 500.000000 500.000000"
 preserveAspectRatio="xMidYMid meet">
<metadata>
Created by potrace 1.14, written by Peter Selinger 2001-2017
</metadata>
<g transform="translate(0.000000,500.000000) scale(0.100000,-0.100000)"
fill="#000000" stroke="none">
<path d="M1821 4984 c-24 -7 -49 -18 -55 -23 -7 -6 -45 -17 -84 -26 -180 -37
-286 -99 -447 -260 -139 -138 -199 -205 -191 -212 10 -10 106 78 106 98 0 10
7 19 15 19 8 0 15 -5 15 -11 0 -6 15 0 33 13 17 13 50 37 71 54 l40 29 -46
-57 c-64 -79 -188 -268 -231 -353 -83 -164 -147 -398 -153 -560 -3 -93 -2
-103 7 -65 20 86 80 295 88 305 4 5 16 34 26 62 11 29 20 51 22 50 1 -2 -7
-52 -18 -112 -26 -144 -34 -310 -20 -408 10 -75 9 -85 -20 -200 -45 -176 -44
-169 -24 -183 17 -13 45 -9 45 7 0 4 18 45 39 90 33 69 41 78 45 58 3 -13 17
-85 31 -159 24 -122 37 -162 49 -149 2 2 11 42 19 89 8 47 16 78 16 70 2 -25
69 -160 120 -240 26 -41 56 -88 65 -104 20 -31 33 -25 38 17 3 28 5 26 51 -37
26 -35 60 -96 76 -133 33 -80 60 -96 58 -34 -2 34 -7 42 -33 54 -27 13 -33 24
-49 89 -10 40 -17 92 -17 116 1 32 -4 45 -18 55 -11 6 -20 16 -20 21 0 4 7 2
16 -5 15 -12 16 -11 10 8 -4 12 -3 24 2 27 11 7 117 -150 117 -173 1 -9 7 -15
14 -13 8 2 11 -3 8 -10 -2 -8 15 -38 39 -68 37 -47 41 -55 27 -65 -9 -7 -13
-17 -9 -23 9 -15 36 -16 36 -2 0 6 8 5 20 -2 10 -7 17 -14 16 -16 -8 -7 52
-156 63 -160 7 -2 15 5 18 17 5 20 7 19 45 -14 22 -18 54 -40 72 -49 44 -21
109 -94 70 -79 -15 5 -16 1 -10 -33 9 -43 16 -56 23 -36 8 23 22 12 47 -35 35
-68 32 -31 -4 45 -17 35 -30 66 -30 68 0 2 29 -13 65 -32 36 -20 69 -34 72
-30 3 3 -3 9 -13 12 -30 11 -205 124 -252 162 -24 20 -56 54 -72 76 -15 23
-39 54 -54 69 -14 15 -44 54 -66 85 -22 31 -54 75 -70 96 -40 53 -38 65 5 27
41 -36 135 -86 135 -72 0 5 -4 11 -9 13 -33 12 -127 205 -146 298 -6 29 1 23
40 -42 56 -94 84 -121 54 -54 -16 37 -18 50 -9 62 10 11 9 14 -2 14 -8 0 -18
17 -24 39 l-11 40 51 7 c37 5 51 3 54 -6 6 -18 72 -89 92 -100 12 -7 35 0 83
25 59 32 65 38 69 71 4 34 2 38 -31 53 -41 18 -185 19 -261 2 -25 -5 -48 -7
-52 -3 -3 4 4 39 18 78 24 74 52 171 60 214 19 103 24 141 24 192 0 32 3 58 8
58 5 0 94 -208 97 -230 1 -3 25 -52 54 -110 60 -118 143 -251 169 -272 15 -11
15 -11 5 2 -22 30 -106 262 -150 420 -2 8 29 -48 69 -126 40 -77 94 -169 120
-205 51 -71 129 -151 109 -111 -7 13 -19 26 -27 29 -13 5 -86 109 -113 161
-11 20 -10 22 16 22 21 0 33 -8 45 -27 9 -16 31 -43 50 -62 18 -19 28 -31 21
-27 -7 4 -3 -13 8 -40 22 -49 59 -114 64 -114 6 0 -46 113 -56 124 -5 6 -9 14
-9 19 0 5 32 -20 70 -57 39 -36 76 -66 83 -66 8 1 6 5 -4 13 -60 46 -205 204
-196 213 4 5 99 -24 125 -38 12 -6 25 -23 29 -37 3 -14 16 -47 29 -73 13 -26
25 -56 27 -67 4 -27 17 -39 17 -17 0 9 -12 43 -26 74 -30 65 -29 51 -22 332 5
217 -8 395 -45 610 -7 44 -11 80 -7 80 3 0 30 -40 60 -90 30 -49 84 -136 119
-192 77 -125 77 -125 54 -131 -13 -4 -11 -5 5 -4 17 2 39 -18 95 -87 40 -49
83 -96 97 -105 13 -9 22 -11 18 -6 -82 144 -99 177 -95 181 3 3 18 -12 33 -33
16 -21 59 -75 96 -120 l69 -83 -58 0 c-32 0 -76 -4 -98 -9 -29 -6 -13 -7 60
-5 l100 5 -72 -21 c-129 -36 -177 -59 -229 -108 -25 -24 -15 -34 14 -14 52 36
59 35 79 -16 10 -26 17 -50 15 -54 -1 -5 27 -8 62 -8 52 0 70 4 93 23 39 31
70 47 77 40 3 -4 6 -25 7 -47 1 -41 1 -41 21 24 31 98 38 112 32 60 -8 -60
-49 -226 -69 -274 -9 -21 -11 -35 -6 -31 17 10 13 -6 -6 -29 -12 -14 -9 -13
10 4 16 14 30 23 31 20 1 -3 24 20 50 50 27 30 55 61 64 67 8 7 24 25 34 40
20 31 25 13 8 -31 -5 -14 -12 -51 -15 -83 -12 -114 -47 -267 -71 -315 -14 -27
-22 -53 -19 -58 3 -4 1 -10 -4 -12 -5 -1 -36 -50 -70 -107 -34 -57 -76 -122
-94 -145 -18 -22 -39 -50 -47 -60 -8 -11 -31 -38 -51 -60 -40 -47 -83 -106
-75 -106 5 0 156 183 213 260 60 80 143 221 137 231 -3 5 0 17 6 26 10 16 10
15 5 -4 -3 -12 -1 -24 5 -28 5 -3 10 -14 10 -25 0 -13 5 -17 19 -13 21 5 35
29 55 93 l14 45 1 -54 c2 -86 17 -50 40 91 12 70 30 151 41 180 11 28 18 54
16 56 -3 2 4 13 14 25 11 12 20 27 21 32 0 6 5 18 10 28 22 39 -1 12 -52 -63
-43 -62 -58 -78 -73 -73 -10 3 -23 -1 -28 -8 -7 -10 -8 -8 -3 6 3 11 11 61 16
110 12 115 15 125 40 155 l20 25 -6 -50 c-6 -47 -5 -49 9 -28 9 12 19 49 23
82 3 34 9 61 12 61 4 0 17 -21 30 -47 l23 -47 17 23 18 24 19 -27 c62 -87 72
-88 44 -6 -13 37 -19 83 -20 143 0 91 13 110 25 37 4 -22 11 -40 15 -40 9 0
10 11 11 228 0 72 4 132 8 132 4 0 29 -23 56 -50 41 -42 153 -120 172 -120 2
0 -32 39 -76 87 -45 48 -81 95 -81 105 0 10 -9 51 -20 90 -24 87 -25 99 -5 92
14 -6 1 33 -56 163 -11 24 -19 46 -19 49 0 7 -17 45 -81 183 -27 57 -47 106
-45 108 8 9 182 -188 236 -267 92 -136 100 -126 21 25 -139 264 -247 403 -441
569 -140 120 -168 141 -241 175 l-66 31 -469 -1 c-367 -1 -478 -4 -513 -15z
m1144 -1641 c6 -31 3 -40 -16 -55 -12 -10 -23 -17 -24 -16 -2 2 0 27 2 56 6
62 27 70 38 15z m-915 -78 c0 -8 -2 -15 -4 -15 -2 0 -6 7 -10 15 -3 8 -1 15 4
15 6 0 10 -7 10 -15z m1003 -58 c-9 -48 -63 -175 -81 -189 -13 -11 -15 -10 -9
7 3 11 21 68 38 127 25 85 35 106 45 97 8 -7 11 -22 7 -42z m-989 17 c3 -8 2
-12 -4 -9 -6 3 -10 10 -10 16 0 14 7 11 14 -7z m1039 -38 c6 -14 -44 -100 -66
-113 -12 -7 -7 7 26 79 23 50 31 57 40 34z m71 -261 c-20 -25 -38 -45 -39 -45
-2 0 -3 15 -2 33 2 26 6 32 23 29 12 -1 27 4 34 13 7 8 14 15 17 15 2 0 -12
-20 -33 -45z m-1513 -162 c13 -16 12 -17 -3 -4 -17 13 -22 21 -14 21 2 0 10
-8 17 -17z"/>
<path d="M2658 3513 c7 -3 16 -2 19 1 4 3 -2 6 -13 5 -11 0 -14 -3 -6 -6z"/>
<path d="M1868 3443 c6 -2 18 -2 25 0 6 3 1 5 -13 5 -14 0 -19 -2 -12 -5z"/>
<path d="M1828 3433 c7 -3 16 -2 19 1 4 3 -2 6 -13 5 -11 0 -14 -3 -6 -6z"/>
<path d="M2698 3413 c7 -3 16 -2 19 1 4 3 -2 6 -13 5 -11 0 -14 -3 -6 -6z"/>
<path d="M1859 3210 c-52 -13 -151 -51 -146 -57 3 -2 15 1 27 7 12 6 63 22
113 35 84 22 89 34 6 15z"/>
<path d="M1756 3002 c-3 -6 4 -9 17 -9 12 1 36 -2 52 -6 19 -5 25 -4 15 2 -25
15 -78 23 -84 13z"/>
<path d="M505 2887 c-3 -7 -1 -43 4 -78 6 -35 11 -69 11 -75 0 -10 -139 -49
-145 -42 -1 2 -10 43 -20 91 -19 89 -28 108 -47 89 -12 -12 19 -206 53 -334
22 -82 41 -110 62 -89 9 9 6 32 -11 99 -12 48 -22 92 -22 98 0 6 17 14 38 17
20 4 51 9 69 13 31 6 32 6 38 -39 10 -62 24 -82 48 -65 17 13 16 21 -15 167
-31 143 -49 186 -63 148z"/>
<path d="M884 2855 c-9 -21 3 -45 21 -45 21 0 30 27 15 45 -16 19 -29 19 -36
0z"/>
<path d="M1542 2840 c0 -14 2 -19 5 -12 2 6 2 18 0 25 -3 6 -5 1 -5 -13z"/>
<path d="M659 2791 c-29 -24 -18 -38 16 -23 37 17 69 15 88 -6 21 -23 21 -32
1 -32 -32 0 -82 -32 -94 -60 -9 -23 -9 -34 2 -57 38 -79 176 -35 166 53 -3 25
-1 33 9 30 20 -8 16 4 -11 33 -13 14 -35 38 -49 54 -32 33 -92 37 -128 8z
m136 -126 c0 -32 -5 -42 -27 -55 -21 -11 -32 -12 -45 -4 -39 24 -19 87 31 97
36 7 41 2 41 -38z"/>
<path d="M1552 2790 c0 -14 2 -19 5 -12 2 6 2 18 0 25 -3 6 -5 1 -5 -13z"/>
<path d="M907 2782 c-8 -12 21 -163 34 -176 17 -18 21 25 9 89 -13 67 -32 106
-43 87z"/>
<path d="M4025 2620 c-3 -5 -13 -33 -21 -62 -21 -74 -35 -108 -45 -108 -4 0
-37 23 -73 50 -105 81 -110 72 -56 -108 54 -177 58 -188 72 -174 12 12 1 78
-33 187 -10 32 -17 60 -16 62 2 1 25 -13 52 -33 70 -49 85 -44 114 40 l25 70
18 -55 c10 -30 26 -83 35 -119 18 -72 28 -89 43 -74 7 7 1 48 -19 126 -42 166
-74 233 -96 198z"/>
<path d="M2630 2589 c0 -5 5 -7 10 -4 6 3 10 8 10 11 0 2 -4 4 -10 4 -5 0 -10
-5 -10 -11z"/>
<path d="M3041 2574 c0 -11 3 -14 6 -6 3 7 2 16 -1 19 -3 4 -6 -2 -5 -13z"/>
<path d="M4230 2557 c-42 -21 -52 -55 -36 -118 17 -65 55 -104 95 -94 35 8 71
50 71 82 0 45 -23 104 -48 124 -29 22 -47 24 -82 6z m63 -34 c8 -10 20 -37 26
-60 15 -55 2 -83 -39 -83 -35 0 -48 19 -57 86 -5 39 -3 49 12 60 25 18 39 18
58 -3z"/>
<path d="M3032 2505 c0 -16 2 -22 5 -12 2 9 2 23 0 30 -3 6 -5 -1 -5 -18z"/>
<path d="M3012 2323 c-22 -239 -22 -244 -7 -163 13 76 31 300 24 300 -3 0 -10
-62 -17 -137z"/>
<path d="M3084 2365 c-3 -8 -1 -27 4 -42 10 -27 10 -26 11 15 1 43 -5 54 -15
27z"/>
<path d="M3090 2251 c0 -69 60 -405 75 -420 8 -8 6 20 -10 109 -31 179 -45
275 -45 302 0 15 -4 28 -10 28 -5 0 -10 -9 -10 -19z"/>
<path d="M2250 2250 c8 -5 20 -10 25 -10 6 0 3 5 -5 10 -8 5 -19 10 -25 10 -5
0 -3 -5 5 -10z"/>
<path d="M2340 2210 c8 -5 20 -10 25 -10 6 0 3 5 -5 10 -8 5 -19 10 -25 10 -5
0 -3 -5 5 -10z"/>
<path d="M2488 2153 c7 -3 16 -2 19 1 4 3 -2 6 -13 5 -11 0 -14 -3 -6 -6z"/>
<path d="M2982 2060 c0 -14 2 -19 5 -12 2 6 2 18 0 25 -3 6 -5 1 -5 -13z"/>
<path d="M2170 2008 c0 -7 7 -26 15 -41 8 -15 12 -33 10 -40 -3 -7 2 -34 9
-62 l14 -50 -4 65 c-2 36 -10 82 -19 103 -16 38 -25 47 -25 25z"/>
<path d="M3482 1744 c-7 -25 -37 -99 -66 -164 -44 -97 -68 -135 -132 -210 -44
-50 -90 -106 -104 -123 -20 -26 -331 -408 -391 -482 -16 -19 -18 -19 -90 29
-109 72 -222 159 -329 252 -142 124 -196 173 -189 174 4 0 37 -11 73 -25 37
-14 72 -25 79 -25 6 1 -32 18 -85 38 -84 32 -112 49 -200 123 -57 47 -136 110
-176 139 -39 29 -72 58 -72 64 0 6 27 26 58 44 32 18 71 44 87 58 37 31 15 21
-45 -22 -25 -17 -58 -39 -75 -48 -16 -9 -48 -27 -70 -41 -22 -13 -48 -24 -57
-25 -10 0 -59 -22 -110 -49 -121 -65 -277 -130 -408 -171 -105 -32 -182 -62
-210 -80 -8 -6 -31 -18 -51 -28 -20 -10 -34 -23 -31 -30 2 -8 -5 -23 -15 -35
-11 -12 -39 -52 -64 -89 l-44 -67 -55 -2 c-36 -1 -9 -6 80 -15 419 -40 782
-135 964 -252 64 -41 93 -66 216 -186 243 -238 350 -313 571 -405 42 -17 89
-45 104 -61 l29 -30 331 0 331 0 213 228 c118 125 322 335 455 468 289 288
271 278 471 272 100 -3 135 0 135 8 0 19 -35 121 -68 200 -36 85 -69 139 -108
175 -38 36 -124 89 -143 89 -8 0 -33 9 -55 19 -154 74 -485 214 -506 213 -14
0 -32 6 -40 13 -12 10 -79 46 -190 103 -3 1 -11 -19 -18 -44z"/>
<path d="M2375 1155 c17 -8 37 -14 45 -14 8 0 -1 7 -20 14 -46 18 -64 17 -25
0z"/>
<path d="M670 1044 l-55 -13 49 5 c27 3 58 9 70 14 31 13 -1 10 -64 -6z"/>
<path d="M588 953 c12 -2 30 -2 40 0 9 3 -1 5 -23 4 -22 0 -30 -2 -17 -4z"/>
<path d="M4698 953 c7 -3 16 -2 19 1 4 3 -2 6 -13 5 -11 0 -14 -3 -6 -6z"/>
<path d="M1103 483 c15 -2 37 -2 50 0 12 2 0 4 -28 4 -27 0 -38 -2 -22 -4z"/>
<path d="M998 473 c6 -2 18 -2 25 0 6 3 1 5 -13 5 -14 0 -19 -2 -12 -5z"/>
<path d="M870 458 c-25 -6 -40 -12 -35 -14 6 -2 35 3 65 10 64 16 37 19 -30 4z"/>
<path d="M4461 465 c9 -8 79 -35 79 -30 0 2 -16 12 -36 20 -37 15 -51 19 -43
10z"/>
<path d="M1370 438 c30 -11 104 -42 164 -69 60 -27 111 -47 113 -45 8 8 -297
137 -322 135 -5 0 15 -10 45 -21z"/>
<path d="M4184 402 c-69 -43 -363 -234 -554 -361 -36 -24 -56 -40 -45 -36 25
8 179 102 325 199 103 68 119 75 213 95 140 30 421 101 427 108 7 8 -15 3
-235 -50 -287 -68 -274 -69 -168 5 51 34 101 68 110 75 10 6 15 12 12 12 -3 1
-41 -21 -85 -47z"/>
<path d="M798 433 c7 -3 16 -2 19 1 4 3 -2 6 -13 5 -11 0 -14 -3 -6 -6z"/>
<path d="M640 395 c-19 -7 -28 -13 -20 -13 8 0 31 6 50 13 19 7 28 13 20 13
-8 0 -31 -6 -50 -13z"/>
<path d="M1197 383 c18 -2 50 -2 70 0 21 2 7 4 -32 4 -38 0 -55 -2 -38 -4z"/>
<path d="M1045 375 c-5 -2 -63 -11 -128 -20 -65 -10 -116 -19 -114 -22 3 -2
67 5 143 16 77 11 157 22 179 24 31 3 27 4 -15 5 -30 0 -59 -1 -65 -3z"/>
<path d="M743 323 c9 -2 23 -2 30 0 6 3 -1 5 -18 5 -16 0 -22 -2 -12 -5z"/>
<path d="M673 313 c9 -2 23 -2 30 0 6 3 -1 5 -18 5 -16 0 -22 -2 -12 -5z"/>
<path d="M1685 303 c115 -73 671 -291 691 -271 2 3 -33 15 -79 28 -98 28 -291
105 -477 190 -158 72 -175 79 -135 53z"/>
<path d="M4510 71 c0 -37 2 -41 26 -41 23 0 25 3 22 38 -2 30 -7 38 -25 40
-21 3 -23 -1 -23 -37z m35 19 c3 -5 -1 -10 -9 -10 -9 0 -16 5 -16 10 0 6 4 10
9 10 6 0 13 -4 16 -10z m5 -40 c0 -5 -7 -10 -15 -10 -8 0 -15 5 -15 10 0 6 7
10 15 10 8 0 15 -4 15 -10z"/>
<path d="M4662 70 c0 -25 2 -37 5 -27 6 22 40 22 46 0 3 -10 5 2 5 27 0 25 -2
37 -5 28 -2 -10 -13 -18 -23 -18 -10 0 -21 8 -23 18 -3 9 -5 -3 -5 -28z"/>
<path d="M4861 68 c1 -40 2 -41 9 -13 l7 30 7 -28 c10 -35 24 -35 33 1 l7 27
7 -30 c6 -27 7 -26 8 13 1 46 -15 57 -25 17 -3 -14 -10 -25 -14 -25 -4 0 -11
11 -14 25 -10 40 -26 29 -25 -17z"/>
<path d="M4574 74 c23 -56 21 -58 -64 -67 -19 -2 10 -4 65 -4 55 0 83 2 62 4
-30 3 -37 8 -33 20 3 8 9 27 12 41 l5 27 -15 -25 c-11 -19 -15 -21 -16 -8 0 9
-5 20 -12 24 -8 5 -9 2 -4 -12z"/>
<path d="M4755 81 c19 -8 19 -8 -3 -20 -25 -14 -21 -31 9 -31 14 0 19 7 19 30
0 25 -4 30 -22 29 -22 0 -22 -1 -3 -8z m15 -31 c0 -5 -5 -10 -11 -10 -5 0 -7
5 -4 10 3 6 8 10 11 10 2 0 4 -4 4 -10z"/>
<path d="M4802 60 c0 -19 2 -27 5 -17 2 9 2 25 0 35 -3 9 -5 1 -5 -18z"/>
<path d="M4956 75 c-9 -24 4 -45 28 -44 16 1 17 2 4 6 -10 2 -18 14 -18 25 0
14 5 18 16 14 8 -3 12 -2 9 4 -9 15 -32 12 -39 -5z"/>
<path d="M4828 53 c7 -3 16 -2 19 1 4 3 -2 6 -13 5 -11 0 -14 -3 -6 -6z"/>
</g>
</svg>
